<?xml version="1.0" encoding="utf-8"?>
<svg xmlns="http://www.w3.org/2000/svg" viewBox="-1513.7977 -362.2741 2720.8241 863.9062" width="2720.82px" height="863.906px">
  <defs>
    <radialGradient id="bg" cx="50%" cy="40%" r="80%">
      <stop offset="0" stop-color="#0b0b0b"/>
      <stop offset="0.7" stop-color="#050505"/>
      <stop offset="1" stop-color="#000000"/>
    </radialGradient>
    <filter id="textGlow" x="-60%" y="-60%" width="220%" height="220%">
      <feGaussianBlur stdDeviation="2.2" result="tb"/>
      <feMerge>
        <feMergeNode in="tb"/>
        <feMergeNode in="SourceGraphic"/>
      </feMerge>
    </filter>
    <linearGradient id="neon" x1="0" y1="0" x2="1" y2="1">
      <stop offset="0" stop-color="#6ff6ff"/>
      <stop offset="1" stop-color="#00c7ff"/>
    </linearGradient>
    <filter id="glow" x="-60%" y="-60%" width="220%" height="220%">
      <feGaussianBlur stdDeviation="3.25" result="b"/>
      <feMerge>
        <feMergeNode in="b"/>
        <feMergeNode in="SourceGraphic"/>
      </feMerge>
    </filter>
  </defs>
  <g id="background" transform="matrix(1.7005150318145752, 0, 0, 1.6613579988479614, -1513.7977294921875, -362.27410888671875)" style="">
    <rect width="1600" height="520" fill="url(#bg)"/>
    <g id="stars" fill="#ffffff" opacity="0.35">
      <circle cx="130" cy="80" r="2.2"/>
      <circle cx="240" cy="60" r="1.6" opacity="0.25"/>
      <circle cx="410" cy="95" r="1.3" opacity="0.22"/>
      <circle cx="560" cy="55" r="1.1" opacity="0.18"/>
      <circle cx="740" cy="70" r="1.5" opacity="0.22"/>
      <circle cx="1020" cy="85" r="2.0"/>
      <circle cx="1180" cy="55" r="1.2" opacity="0.18"/>
      <circle cx="1420" cy="90" r="1.6" opacity="0.22"/>
      <circle cx="320" cy="260" r="1.4" opacity="0.22"/>
      <circle cx="520" cy="230" r="1.0" opacity="0.16"/>
      <circle cx="1100" cy="250" r="1.8" opacity="0.25"/>
      <circle cx="1240" cy="220" r="1.1" opacity="0.18"/>
      <circle cx="1460" cy="240" r="1.4" opacity="0.20"/>
      <circle cx="180" cy="430" r="1.8" opacity="0.22"/>
      <circle cx="420" cy="455" r="1.2" opacity="0.18"/>
      <circle cx="760" cy="460" r="1.5" opacity="0.22"/>
      <circle cx="980" cy="430" r="1.2" opacity="0.18"/>
      <circle cx="1320" cy="445" r="2.1" opacity="0.28"/>
      <circle cx="1500" cy="420" r="1.3" opacity="0.18"/>
    </g>
  </g>
  <g id="wordmark" filter="url(#textGlow)" transform="matrix(1.6898460388183594, 0, 0, 1.6613579988479614, -1499.164306640625, -364.5820007324219)" style="">
    <text x="197.553" y="305" font-family="Montserrat, Poppins, Inter, Arial, sans-serif" font-size="118" font-weight="700" letter-spacing="22" fill="#66d9ff" opacity="0.95" style="white-space: pre; font-size: 118px;">BLUE</text>
    <text x="1033.9" y="305" font-family="Montserrat, Poppins, Inter, Arial, sans-serif" font-size="118" font-weight="700" letter-spacing="22" fill="#66d9ff" opacity="0.95" style="white-space: pre; font-size: 118px;">ORBIT</text>
  </g>
  <g id="planet-icon" filter="url(#glow)" stroke="url(#neon)" fill="none" stroke-width="10" stroke-linecap="round" stroke-linejoin="round" transform="matrix(1.6898460388183594, 0, 0, 1.6613579988479614, -1499.164306640625, -364.5820007324219)" style="">
    <circle id="planet" cx="805" cy="260" r="118" opacity="0.98"/>
    <g id="ring" transform="rotate(22 805 260)">
      <ellipse cx="805" cy="260" rx="218.91" ry="57.77" opacity="0.92"/>
    </g>
    <path id="highlight-top" d="M 852.764 172.01 C 873.361 183.239 889.829 200.758 899.764 222.01" opacity="0.95"/>
    <path id="highlight-mid" d="M 901.208 255.237 C 903.958 268.429 903.958 282.045 901.208 295.237" opacity="0.65"/>
  </g>
</svg>